<svg xmlns="http://www.w3.org/2000/svg" viewBox="0 0 1024 1024" fill="none">
  <defs>
    <!-- Background: soft dark gradient per Apple HIG (not pure black, colored) -->
    <linearGradient id="bg" x1="0.5" y1="0" x2="0.5" y2="1">
      <stop offset="0%" stop-color="#1e1b4b"/>
      <stop offset="100%" stop-color="#0f0a2a"/>
    </linearGradient>
    <!-- Foreground M: indigo gradient -->
    <linearGradient id="fg" x1="0" y1="0.5" x2="1" y2="0.5">
      <stop offset="0%" stop-color="#a5b4fc"/>
      <stop offset="50%" stop-color="#818cf8"/>
      <stop offset="100%" stop-color="#6366f1"/>
    </linearGradient>
  </defs>

  <!-- Background layer: full canvas — macOS applies rounded mask automatically -->
  <rect width="1024" height="1024" fill="url(#bg)"/>

  <!-- Foreground layer: M logo centered with padding -->
  <g transform="translate(-84, -73) scale(2.98)">
    <path d="M79.883 87.990 L 79.883 92.773 82.568 92.774 C 93.352 92.778,109.831 96.313,120.996 101.018 C 134.206 106.585,147.356 114.884,158.691 124.807 C 159.873 125.841,161.553 127.296,162.424 128.041 C 168.544 133.269,179.065 143.277,190.670 154.912 C 195.691 159.945,199.881 164.063,199.982 164.062 C 200.084 164.062,204.244 159.998,209.228 155.029 C 231.229 133.096,243.256 122.448,255.859 113.749 C 274.407 100.945,297.788 92.974,316.808 92.969 C 320.667 92.969,320.331 93.462,320.267 87.891 L 320.215 83.301 318.457 83.238 C 305.719 82.782,284.169 87.733,270.654 94.219 C 269.177 94.928,267.920 95.508,267.860 95.508 C 267.626 95.508,260.324 99.530,258.203 100.827 C 252.328 104.420,244.901 109.632,241.310 112.681 C 240.858 113.065,239.706 113.991,238.750 114.738 C 237.208 115.944,231.069 121.142,229.975 122.168 C 229.746 122.383,228.433 123.569,227.057 124.805 C 220.832 130.397,208.102 142.584,202.497 148.320 C 201.132 149.717,199.973 150.821,199.923 150.772 C 199.872 150.723,197.209 148.091,194.005 144.922 C 188.130 139.113,179.833 131.087,178.027 129.469 C 177.490 128.987,175.948 127.587,174.600 126.357 C 163.646 116.361,156.140 110.343,147.168 104.362 C 127.238 91.075,106.257 84.238,82.568 83.311 L 79.883 83.206 79.883 87.990 M80.322 113.051 C 79.889 113.112,79.883 113.156,79.882 115.980 C 79.881 117.557,79.832 119.551,79.772 120.410 C 79.626 122.528,79.341 122.388,84.304 122.636 C 109.257 123.882,128.952 133.844,154.785 158.285 C 158.992 162.265,184.109 187.393,184.372 187.885 C 184.492 188.109,184.342 188.648,183.879 189.660 C 179.323 199.611,185.605 211.966,196.330 214.147 C 210.478 217.024,221.863 202.875,216.111 189.563 L 215.441 188.013 219.781 183.630 C 241.426 161.770,246.495 156.888,255.261 149.466 C 276.720 131.294,294.364 123.619,316.797 122.699 L 320.215 122.559 320.215 117.773 L 320.215 112.988 317.383 113.026 C 304.234 113.201,289.475 116.928,276.590 123.327 C 274.521 124.354,273.760 124.768,269.629 127.115 C 265.812 129.284,257.176 135.251,254.480 137.582 C 254.098 137.913,252.915 138.887,251.851 139.746 C 244.442 145.732,229.349 160.186,213.230 176.731 C 209.955 180.093,208.695 181.267,208.445 181.189 C 208.258 181.132,207.555 180.854,206.883 180.573 C 202.430 178.709,197.462 178.722,193.004 180.609 L 191.379 181.297 180.407 170.271 C 143.196 132.884,127.881 122.147,102.734 115.820 C 95.982 114.121,83.577 112.588,80.322 113.051 M79.931 143.206 C 79.575 143.642,79.593 248.828,79.950 248.828 C 81.543 248.828,85.991 243.719,87.617 240.023 C 89.054 236.753,88.939 240.501,89.008 194.580 L 89.070 153.320 89.572 153.320 C 92.893 153.320,106.486 158.077,108.274 159.864 C 108.659 160.250,108.754 230.889,108.376 235.840 C 107.793 243.470,106.075 248.614,101.983 254.980 C 97.681 261.674,89.960 267.435,82.617 269.431 C 81.597 269.708,80.542 270.000,80.273 270.079 L 79.785 270.224 79.733 274.863 C 79.671 280.312,79.427 279.898,82.349 279.310 C 99.263 275.906,113.813 260.664,117.072 242.936 C 117.955 238.136,117.967 237.548,117.971 201.172 C 117.973 181.769,118.050 166.385,118.145 166.235 C 118.338 165.931,118.489 165.998,119.629 166.897 C 124.750 170.939,127.411 173.110,128.676 174.280 C 129.511 175.052,131.534 176.905,133.170 178.398 C 134.807 179.890,136.363 181.369,136.628 181.684 L 137.109 182.257 137.108 208.267 C 137.107 243.128,136.959 245.257,133.845 255.254 C 126.541 278.699,105.881 296.810,82.684 300.102 C 81.520 300.267,80.369 300.445,80.127 300.498 L 79.688 300.593 79.688 305.277 L 79.688 309.961 80.518 309.957 C 91.186 309.908,107.240 303.205,118.750 293.993 C 132.301 283.147,142.194 266.304,145.223 248.926 C 146.383 242.267,146.356 242.977,146.474 216.325 C 146.551 198.757,146.643 191.711,146.796 191.660 C 147.176 191.534,164.718 210.031,170.791 216.963 C 171.323 217.570,172.599 218.989,173.626 220.117 C 174.654 221.245,176.061 222.827,176.755 223.633 C 177.448 224.438,178.815 225.977,179.792 227.051 C 180.769 228.125,182.178 229.713,182.923 230.580 C 185.974 234.132,186.653 234.912,187.592 235.945 C 188.588 237.042,191.756 240.719,196.966 246.826 C 198.546 248.679,199.909 250.195,199.993 250.195 C 200.142 250.195,202.569 247.484,204.980 244.623 C 205.625 243.858,206.943 242.321,207.910 241.206 C 208.877 240.091,210.327 238.419,211.133 237.490 C 211.938 236.560,213.564 234.673,214.746 233.296 C 225.166 221.148,252.598 191.458,253.212 191.663 C 253.354 191.710,253.453 199.371,253.531 216.422 C 253.655 243.425,253.601 242.111,254.875 249.219 C 260.122 278.485,282.464 302.144,310.938 308.586 C 314.320 309.351,317.218 309.810,318.841 309.839 L 320.215 309.863 320.215 305.188 L 320.215 300.512 317.924 300.179 C 287.476 295.750,264.716 269.734,263.088 237.497 C 262.835 232.491,262.827 183.006,263.078 182.344 C 263.298 181.766,264.420 180.611,266.991 178.316 C 268.011 177.405,269.417 176.131,270.116 175.484 C 273.557 172.299,281.138 166.211,281.662 166.211 C 281.763 166.211,281.836 180.044,281.837 199.170 C 281.838 233.754,281.891 236.340,282.709 241.602 C 285.540 259.808,299.565 275.234,316.814 279.112 C 320.667 279.979,320.313 280.413,320.313 274.818 L 320.313 270.132 319.482 269.931 C 304.508 266.299,294.219 254.601,291.872 238.538 C 291.465 235.750,291.204 160.898,291.599 160.160 C 291.950 159.505,298.619 156.459,302.498 155.183 C 304.798 154.426,310.399 153.295,310.645 153.537 C 310.773 153.664,310.877 167.786,310.948 194.687 C 311.030 225.658,311.114 235.883,311.292 236.621 C 311.969 239.430,312.752 241.223,314.371 243.673 C 315.805 245.843,319.068 248.828,320.006 248.828 C 320.285 248.828,320.309 243.915,320.264 195.947 L 320.215 143.066 318.945 143.006 C 315.272 142.831,306.197 144.233,300.869 145.799 C 289.690 149.084,276.384 156.860,266.299 166.001 C 265.756 166.492,264.352 167.729,263.177 168.750 C 258.408 172.895,247.814 183.293,238.902 192.578 C 234.763 196.890,228.554 203.527,226.538 205.795 C 225.853 206.565,223.887 208.746,222.168 210.641 C 220.449 212.536,218.472 214.734,217.773 215.526 C 217.075 216.317,215.889 217.663,215.137 218.516 C 214.385 219.370,211.591 222.562,208.928 225.610 C 201.392 234.237,200.175 235.573,199.911 235.509 C 199.776 235.476,198.499 234.087,197.074 232.422 C 195.649 230.757,193.329 228.080,191.919 226.472 C 190.509 224.865,188.433 222.498,187.305 221.212 C 186.177 219.926,184.067 217.558,182.617 215.950 C 181.167 214.342,179.585 212.564,179.102 211.999 C 170.078 201.449,145.650 176.473,137.109 169.066 C 136.411 168.460,135.107 167.328,134.210 166.551 C 116.892 151.523,101.636 144.451,83.984 143.266 C 83.071 143.204,81.832 143.110,81.230 143.055 C 80.474 142.987,80.073 143.033,79.931 143.206" stroke="none" fill="url(#fg)" fill-rule="evenodd"/>
  </g>
</svg>
